<svg width="462" height="113" viewBox="0 0 462 113" fill="none" xmlns="http://www.w3.org/2000/svg">
<g filter="url(#filter0_d_1_11112)">
<path d="M119.066 40.9424V28.2524H120.542V33.8684H128.156V28.2524H129.632V40.9424H128.156V35.1464H120.542V40.9424H119.066ZM136.503 41.1044C135.123 41.1044 134.031 40.7024 133.227 39.8984C132.423 39.0824 132.021 37.9784 132.021 36.5864C132.021 35.6864 132.201 34.8944 132.561 34.2104C132.921 33.5144 133.413 32.9804 134.037 32.6084C134.673 32.2244 135.405 32.0324 136.233 32.0324C137.421 32.0324 138.351 32.4164 139.023 33.1844C139.695 33.9404 140.031 34.9844 140.031 36.3164V36.8744H133.443C133.491 37.8704 133.779 38.6324 134.307 39.1604C134.835 39.6764 135.567 39.9344 136.503 39.9344C137.031 39.9344 137.535 39.8564 138.015 39.7004C138.495 39.5324 138.951 39.2624 139.383 38.8904L139.887 39.9164C139.491 40.2884 138.987 40.5824 138.375 40.7984C137.763 41.0024 137.139 41.1044 136.503 41.1044ZM136.269 33.1124C135.441 33.1124 134.787 33.3704 134.307 33.8864C133.827 34.4024 133.545 35.0804 133.461 35.9204H138.771C138.735 35.0324 138.501 34.3424 138.069 33.8504C137.649 33.3584 137.049 33.1124 136.269 33.1124ZM144.823 41.1044C143.935 41.1044 143.263 40.8464 142.807 40.3304C142.363 39.8024 142.141 39.0404 142.141 38.0444V28.2524H143.599V37.9364C143.599 39.2204 144.109 39.8624 145.129 39.8624C145.429 39.8624 145.699 39.8264 145.939 39.7544L145.903 40.9784C145.531 41.0624 145.171 41.1044 144.823 41.1044ZM147.468 44.1824V32.1944H148.89V33.7604C149.154 33.2204 149.544 32.8004 150.06 32.5004C150.588 32.1884 151.2 32.0324 151.896 32.0324C152.676 32.0324 153.354 32.2184 153.93 32.5904C154.518 32.9504 154.968 33.4724 155.28 34.1564C155.604 34.8284 155.766 35.6324 155.766 36.5684C155.766 37.4924 155.604 38.2964 155.28 38.9804C154.968 39.6524 154.518 40.1744 153.93 40.5464C153.354 40.9184 152.676 41.1044 151.896 41.1044C151.224 41.1044 150.624 40.9544 150.096 40.6544C149.568 40.3544 149.178 39.9404 148.926 39.4124V44.1824H147.468ZM151.59 39.9344C152.406 39.9344 153.06 39.6464 153.552 39.0704C154.044 38.4824 154.29 37.6484 154.29 36.5684C154.29 35.4764 154.044 34.6424 153.552 34.0664C153.06 33.4904 152.406 33.2024 151.59 33.2024C150.774 33.2024 150.12 33.4904 149.628 34.0664C149.136 34.6424 148.89 35.4764 148.89 36.5684C148.89 37.6484 149.136 38.4824 149.628 39.0704C150.12 39.6464 150.774 39.9344 151.59 39.9344ZM165.537 41.1044C164.853 41.1044 164.205 41.0084 163.593 40.8164C162.981 40.6244 162.477 40.3544 162.081 40.0064L162.549 38.9804C162.981 39.3284 163.455 39.5864 163.971 39.7544C164.499 39.9104 165.033 39.9884 165.573 39.9884C166.257 39.9884 166.773 39.8624 167.121 39.6104C167.469 39.3584 167.643 39.0164 167.643 38.5844C167.643 38.2484 167.529 37.9844 167.301 37.7924C167.073 37.5884 166.713 37.4324 166.221 37.3244L164.583 36.9644C163.095 36.6404 162.351 35.8724 162.351 34.6604C162.351 33.8684 162.663 33.2324 163.287 32.7524C163.923 32.2724 164.751 32.0324 165.771 32.0324C166.371 32.0324 166.941 32.1284 167.481 32.3204C168.033 32.5004 168.489 32.7704 168.849 33.1304L168.363 34.1564C168.015 33.8324 167.607 33.5864 167.139 33.4184C166.683 33.2384 166.227 33.1484 165.771 33.1484C165.099 33.1484 164.589 33.2804 164.241 33.5444C163.893 33.8084 163.719 34.1564 163.719 34.5884C163.719 35.2604 164.163 35.6924 165.051 35.8844L166.689 36.2264C167.457 36.3944 168.039 36.6644 168.435 37.0364C168.831 37.3964 169.029 37.8884 169.029 38.5124C169.029 39.3164 168.711 39.9524 168.075 40.4204C167.439 40.8764 166.593 41.1044 165.537 41.1044ZM174.005 41.1044C173.405 41.1044 172.865 40.9904 172.385 40.7624C171.917 40.5224 171.545 40.1984 171.269 39.7904C170.993 39.3824 170.855 38.9264 170.855 38.4224C170.855 37.7864 171.017 37.2824 171.341 36.9104C171.677 36.5384 172.223 36.2744 172.979 36.1184C173.747 35.9504 174.791 35.8664 176.111 35.8664H176.687V35.3084C176.687 34.5644 176.531 34.0304 176.219 33.7064C175.919 33.3704 175.433 33.2024 174.761 33.2024C174.233 33.2024 173.723 33.2804 173.231 33.4364C172.739 33.5804 172.235 33.8204 171.719 34.1564L171.215 33.0944C171.671 32.7704 172.223 32.5124 172.871 32.3204C173.531 32.1284 174.161 32.0324 174.761 32.0324C175.889 32.0324 176.723 32.3084 177.263 32.8604C177.815 33.4124 178.091 34.2704 178.091 35.4344V40.9424H176.723V39.4304C176.495 39.9464 176.141 40.3544 175.661 40.6544C175.193 40.9544 174.641 41.1044 174.005 41.1044ZM174.239 40.0064C174.959 40.0064 175.547 39.7604 176.003 39.2684C176.459 38.7644 176.687 38.1284 176.687 37.3604V36.8204H176.129C175.157 36.8204 174.389 36.8684 173.825 36.9644C173.273 37.0484 172.883 37.2044 172.655 37.4324C172.439 37.6484 172.331 37.9484 172.331 38.3324C172.331 38.8244 172.499 39.2264 172.835 39.5384C173.183 39.8504 173.651 40.0064 174.239 40.0064ZM183.282 40.9424L179.52 32.1944H181.104L184.002 39.2864L186.936 32.1944H188.43L184.65 40.9424H183.282ZM193.79 41.1044C192.41 41.1044 191.318 40.7024 190.514 39.8984C189.71 39.0824 189.308 37.9784 189.308 36.5864C189.308 35.6864 189.488 34.8944 189.848 34.2104C190.208 33.5144 190.7 32.9804 191.324 32.6084C191.96 32.2244 192.692 32.0324 193.52 32.0324C194.708 32.0324 195.638 32.4164 196.31 33.1844C196.982 33.9404 197.318 34.9844 197.318 36.3164V36.8744H190.73C190.778 37.8704 191.066 38.6324 191.594 39.1604C192.122 39.6764 192.854 39.9344 193.79 39.9344C194.318 39.9344 194.822 39.8564 195.302 39.7004C195.782 39.5324 196.238 39.2624 196.67 38.8904L197.174 39.9164C196.778 40.2884 196.274 40.5824 195.662 40.7984C195.05 41.0024 194.426 41.1044 193.79 41.1044ZM193.556 33.1124C192.728 33.1124 192.074 33.3704 191.594 33.8864C191.114 34.4024 190.832 35.0804 190.748 35.9204H196.058C196.022 35.0324 195.788 34.3424 195.356 33.8504C194.936 33.3584 194.336 33.1124 193.556 33.1124ZM204.916 40.9424V39.6824H207.814V30.0344L205.528 31.4744L204.898 30.3764L208.228 28.2524H209.29V39.6824H212.008V40.9424H204.916ZM218.877 41.1044C217.425 41.1044 216.321 40.5464 215.565 39.4304C214.809 38.3144 214.431 36.7004 214.431 34.5884C214.431 32.4644 214.809 30.8504 215.565 29.7464C216.321 28.6424 217.425 28.0904 218.877 28.0904C220.341 28.0904 221.445 28.6424 222.189 29.7464C222.945 30.8384 223.323 32.4464 223.323 34.5704C223.323 36.6944 222.939 38.3144 222.171 39.4304C221.415 40.5464 220.317 41.1044 218.877 41.1044ZM218.877 39.8264C219.885 39.8264 220.629 39.4004 221.109 38.5484C221.601 37.6964 221.847 36.3704 221.847 34.5704C221.847 32.7704 221.607 31.4564 221.127 30.6284C220.647 29.7884 219.897 29.3684 218.877 29.3684C217.869 29.3684 217.119 29.7884 216.627 30.6284C216.147 31.4684 215.907 32.7824 215.907 34.5704C215.907 36.3704 216.147 37.6964 216.627 38.5484C217.119 39.4004 217.869 39.8264 218.877 39.8264ZM230.189 36.7484V35.5424H235.229V36.7484H230.189ZM242.765 40.9424V39.8264L247.103 35.1464C247.715 34.4744 248.153 33.8624 248.417 33.3104C248.693 32.7584 248.831 32.1944 248.831 31.6184C248.831 30.1424 247.973 29.4044 246.257 29.4044C244.973 29.4044 243.839 29.8844 242.855 30.8444L242.297 29.6924C242.765 29.2124 243.359 28.8284 244.079 28.5404C244.811 28.2404 245.579 28.0904 246.383 28.0904C247.655 28.0904 248.627 28.3904 249.299 28.9904C249.983 29.5784 250.325 30.4184 250.325 31.5104C250.325 32.2664 250.139 33.0104 249.767 33.7424C249.395 34.4624 248.825 35.2304 248.057 36.0464L244.655 39.6824H250.847V40.9424H242.765ZM257.338 41.1044C255.886 41.1044 254.782 40.5464 254.026 39.4304C253.27 38.3144 252.892 36.7004 252.892 34.5884C252.892 32.4644 253.27 30.8504 254.026 29.7464C254.782 28.6424 255.886 28.0904 257.338 28.0904C258.802 28.0904 259.906 28.6424 260.65 29.7464C261.406 30.8384 261.784 32.4464 261.784 34.5704C261.784 36.6944 261.4 38.3144 260.632 39.4304C259.876 40.5464 258.778 41.1044 257.338 41.1044ZM257.338 39.8264C258.346 39.8264 259.09 39.4004 259.57 38.5484C260.062 37.6964 260.308 36.3704 260.308 34.5704C260.308 32.7704 260.068 31.4564 259.588 30.6284C259.108 29.7884 258.358 29.3684 257.338 29.3684C256.33 29.3684 255.58 29.7884 255.088 30.6284C254.608 31.4684 254.368 32.7824 254.368 34.5704C254.368 36.3704 254.608 37.6964 255.088 38.5484C255.58 39.4004 256.33 39.8264 257.338 39.8264ZM267.878 41.3924L266.852 40.7984L274.322 27.8024L275.33 28.3964L267.878 41.3924ZM266.798 35.8664C265.838 35.8664 265.088 35.5244 264.548 34.8404C264.008 34.1564 263.738 33.2024 263.738 31.9784C263.738 30.7544 264.008 29.8064 264.548 29.1344C265.088 28.4504 265.838 28.1084 266.798 28.1084C267.746 28.1084 268.49 28.4504 269.03 29.1344C269.582 29.8064 269.858 30.7544 269.858 31.9784C269.858 33.2024 269.582 34.1564 269.03 34.8404C268.49 35.5244 267.746 35.8664 266.798 35.8664ZM266.798 34.8044C267.35 34.8044 267.788 34.5704 268.112 34.1024C268.436 33.6224 268.598 32.9144 268.598 31.9784C268.598 31.0424 268.436 30.3404 268.112 29.8724C267.788 29.4044 267.35 29.1704 266.798 29.1704C266.234 29.1704 265.79 29.4044 265.466 29.8724C265.154 30.3404 264.998 31.0424 264.998 31.9784C264.998 32.9144 265.154 33.6224 265.466 34.1024C265.79 34.5704 266.234 34.8044 266.798 34.8044ZM275.402 41.1044C274.454 41.1044 273.704 40.7624 273.152 40.0784C272.612 39.3944 272.342 38.4404 272.342 37.2164C272.342 36.0044 272.612 35.0564 273.152 34.3724C273.704 33.6884 274.454 33.3464 275.402 33.3464C276.362 33.3464 277.112 33.6884 277.652 34.3724C278.192 35.0564 278.462 36.0044 278.462 37.2164C278.462 38.4404 278.192 39.3944 277.652 40.0784C277.112 40.7624 276.362 41.1044 275.402 41.1044ZM275.402 40.0424C275.966 40.0424 276.404 39.8084 276.716 39.3404C277.04 38.8604 277.202 38.1524 277.202 37.2164C277.202 36.2804 277.04 35.5784 276.716 35.1104C276.404 34.6424 275.966 34.4084 275.402 34.4084C274.85 34.4084 274.412 34.6424 274.088 35.1104C273.776 35.5784 273.62 36.2804 273.62 37.2164C273.62 38.1644 273.776 38.8724 274.088 39.3404C274.412 39.8084 274.85 40.0424 275.402 40.0424ZM289.092 41.1044C288.24 41.1044 287.502 40.9184 286.878 40.5464C286.254 40.1744 285.768 39.6524 285.42 38.9804C285.084 38.2964 284.916 37.4924 284.916 36.5684C284.916 35.6444 285.084 34.8464 285.42 34.1744C285.768 33.4904 286.254 32.9624 286.878 32.5904C287.502 32.2184 288.24 32.0324 289.092 32.0324C289.932 32.0324 290.664 32.2184 291.288 32.5904C291.924 32.9624 292.41 33.4904 292.746 34.1744C293.094 34.8464 293.268 35.6444 293.268 36.5684C293.268 37.4924 293.094 38.2964 292.746 38.9804C292.41 39.6524 291.924 40.1744 291.288 40.5464C290.664 40.9184 289.932 41.1044 289.092 41.1044ZM289.092 39.9344C289.908 39.9344 290.562 39.6464 291.054 39.0704C291.546 38.4824 291.792 37.6484 291.792 36.5684C291.792 35.4764 291.546 34.6424 291.054 34.0664C290.562 33.4904 289.908 33.2024 289.092 33.2024C288.264 33.2024 287.604 33.4904 287.112 34.0664C286.632 34.6424 286.392 35.4764 286.392 36.5684C286.392 37.6484 286.632 38.4824 287.112 39.0704C287.604 39.6464 288.264 39.9344 289.092 39.9344ZM295.838 40.9424V33.3284H294.11V32.1944H295.838V31.8884C295.838 30.7244 296.126 29.8424 296.702 29.2424C297.29 28.6424 298.19 28.3064 299.402 28.2344L300.104 28.1984L300.23 29.3144L299.402 29.3684C298.658 29.4284 298.118 29.6504 297.782 30.0344C297.458 30.4184 297.296 30.9764 297.296 31.7084V32.1944H299.816V33.3284H297.296V40.9424H295.838ZM309.497 41.1044C308.465 41.1044 307.691 40.8344 307.175 40.2944C306.659 39.7424 306.401 38.9504 306.401 37.9184V33.3284H304.691V32.1944H306.401V29.5124H307.859V32.1944H310.631V33.3284H307.859V37.7744C307.859 38.4584 308.003 38.9804 308.291 39.3404C308.579 39.6884 309.047 39.8624 309.695 39.8624C309.887 39.8624 310.079 39.8384 310.271 39.7904C310.463 39.7424 310.637 39.6944 310.793 39.6464L311.045 40.7624C310.889 40.8464 310.661 40.9244 310.361 40.9964C310.061 41.0684 309.773 41.1044 309.497 41.1044ZM312.28 40.9424V28.2524H313.738V33.6344C314.026 33.1064 314.428 32.7104 314.944 32.4464C315.472 32.1704 316.06 32.0324 316.708 32.0324C318.784 32.0324 319.822 33.1844 319.822 35.4884V40.9424H318.364V35.5784C318.364 34.7624 318.202 34.1684 317.878 33.7964C317.566 33.4124 317.062 33.2204 316.366 33.2204C315.562 33.2204 314.92 33.4724 314.44 33.9764C313.972 34.4684 313.738 35.1284 313.738 35.9564V40.9424H312.28ZM326.453 41.1044C325.073 41.1044 323.981 40.7024 323.177 39.8984C322.373 39.0824 321.971 37.9784 321.971 36.5864C321.971 35.6864 322.151 34.8944 322.511 34.2104C322.871 33.5144 323.363 32.9804 323.987 32.6084C324.623 32.2244 325.355 32.0324 326.183 32.0324C327.371 32.0324 328.301 32.4164 328.973 33.1844C329.645 33.9404 329.981 34.9844 329.981 36.3164V36.8744H323.393C323.441 37.8704 323.729 38.6324 324.257 39.1604C324.785 39.6764 325.517 39.9344 326.453 39.9344C326.981 39.9344 327.485 39.8564 327.965 39.7004C328.445 39.5324 328.901 39.2624 329.333 38.8904L329.837 39.9164C329.441 40.2884 328.937 40.5824 328.325 40.7984C327.713 41.0024 327.089 41.1044 326.453 41.1044ZM326.219 33.1124C325.391 33.1124 324.737 33.3704 324.257 33.8864C323.777 34.4024 323.495 35.0804 323.411 35.9204H328.721C328.685 35.0324 328.451 34.3424 328.019 33.8504C327.599 33.3584 326.999 33.1124 326.219 33.1124ZM122.576 67.1044C121.7 67.1044 120.944 66.9184 120.308 66.5464C119.672 66.1624 119.18 65.6284 118.832 64.9444C118.496 64.2484 118.328 63.4384 118.328 62.5144C118.328 61.1224 118.706 60.0304 119.462 59.2384C120.218 58.4344 121.256 58.0324 122.576 58.0324C123.116 58.0324 123.65 58.1284 124.178 58.3204C124.706 58.5124 125.144 58.7824 125.492 59.1304L124.988 60.1924C124.64 59.8564 124.256 59.6104 123.836 59.4544C123.428 59.2984 123.038 59.2204 122.666 59.2204C121.754 59.2204 121.052 59.5084 120.56 60.0844C120.068 60.6484 119.822 61.4644 119.822 62.5324C119.822 63.5764 120.068 64.4044 120.56 65.0164C121.052 65.6164 121.754 65.9164 122.666 65.9164C123.038 65.9164 123.428 65.8384 123.836 65.6824C124.256 65.5264 124.64 65.2744 124.988 64.9264L125.492 65.9884C125.144 66.3364 124.7 66.6124 124.16 66.8164C123.632 67.0084 123.104 67.1044 122.576 67.1044ZM130.66 67.1044C129.808 67.1044 129.07 66.9184 128.446 66.5464C127.822 66.1744 127.336 65.6524 126.988 64.9804C126.652 64.2964 126.484 63.4924 126.484 62.5684C126.484 61.6444 126.652 60.8464 126.988 60.1744C127.336 59.4904 127.822 58.9624 128.446 58.5904C129.07 58.2184 129.808 58.0324 130.66 58.0324C131.5 58.0324 132.232 58.2184 132.856 58.5904C133.492 58.9624 133.978 59.4904 134.314 60.1744C134.662 60.8464 134.836 61.6444 134.836 62.5684C134.836 63.4924 134.662 64.2964 134.314 64.9804C133.978 65.6524 133.492 66.1744 132.856 66.5464C132.232 66.9184 131.5 67.1044 130.66 67.1044ZM130.66 65.9344C131.476 65.9344 132.13 65.6464 132.622 65.0704C133.114 64.4824 133.36 63.6484 133.36 62.5684C133.36 61.4764 133.114 60.6424 132.622 60.0664C132.13 59.4904 131.476 59.2024 130.66 59.2024C129.832 59.2024 129.172 59.4904 128.68 60.0664C128.2 60.6424 127.96 61.4764 127.96 62.5684C127.96 63.6484 128.2 64.4824 128.68 65.0704C129.172 65.6464 129.832 65.9344 130.66 65.9344ZM139.978 67.1044C139.294 67.1044 138.646 67.0084 138.034 66.8164C137.422 66.6244 136.918 66.3544 136.522 66.0064L136.99 64.9804C137.422 65.3284 137.896 65.5864 138.412 65.7544C138.94 65.9104 139.474 65.9884 140.014 65.9884C140.698 65.9884 141.214 65.8624 141.562 65.6104C141.91 65.3584 142.084 65.0164 142.084 64.5844C142.084 64.2484 141.97 63.9844 141.742 63.7924C141.514 63.5884 141.154 63.4324 140.662 63.3244L139.024 62.9644C137.536 62.6404 136.792 61.8724 136.792 60.6604C136.792 59.8684 137.104 59.2324 137.728 58.7524C138.364 58.2724 139.192 58.0324 140.212 58.0324C140.812 58.0324 141.382 58.1284 141.922 58.3204C142.474 58.5004 142.93 58.7704 143.29 59.1304L142.804 60.1564C142.456 59.8324 142.048 59.5864 141.58 59.4184C141.124 59.2384 140.668 59.1484 140.212 59.1484C139.54 59.1484 139.03 59.2804 138.682 59.5444C138.334 59.8084 138.16 60.1564 138.16 60.5884C138.16 61.2604 138.604 61.6924 139.492 61.8844L141.13 62.2264C141.898 62.3944 142.48 62.6644 142.876 63.0364C143.272 63.3964 143.47 63.8884 143.47 64.5124C143.47 65.3164 143.152 65.9524 142.516 66.4204C141.88 66.8764 141.034 67.1044 139.978 67.1044ZM149.114 67.1044C148.082 67.1044 147.308 66.8344 146.792 66.2944C146.276 65.7424 146.018 64.9504 146.018 63.9184V59.3284H144.308V58.1944H146.018V55.5124H147.476V58.1944H150.248V59.3284H147.476V63.7744C147.476 64.4584 147.62 64.9804 147.908 65.3404C148.196 65.6884 148.664 65.8624 149.312 65.8624C149.504 65.8624 149.696 65.8384 149.888 65.7904C150.08 65.7424 150.254 65.6944 150.41 65.6464L150.662 66.7624C150.506 66.8464 150.278 66.9244 149.978 66.9964C149.678 67.0684 149.39 67.1044 149.114 67.1044ZM160.156 67.1044C159.304 67.1044 158.566 66.9184 157.942 66.5464C157.318 66.1744 156.832 65.6524 156.484 64.9804C156.148 64.2964 155.98 63.4924 155.98 62.5684C155.98 61.6444 156.148 60.8464 156.484 60.1744C156.832 59.4904 157.318 58.9624 157.942 58.5904C158.566 58.2184 159.304 58.0324 160.156 58.0324C160.996 58.0324 161.728 58.2184 162.352 58.5904C162.988 58.9624 163.474 59.4904 163.81 60.1744C164.158 60.8464 164.332 61.6444 164.332 62.5684C164.332 63.4924 164.158 64.2964 163.81 64.9804C163.474 65.6524 162.988 66.1744 162.352 66.5464C161.728 66.9184 160.996 67.1044 160.156 67.1044ZM160.156 65.9344C160.972 65.9344 161.626 65.6464 162.118 65.0704C162.61 64.4824 162.856 63.6484 162.856 62.5684C162.856 61.4764 162.61 60.6424 162.118 60.0664C161.626 59.4904 160.972 59.2024 160.156 59.2024C159.328 59.2024 158.668 59.4904 158.176 60.0664C157.696 60.6424 157.456 61.4764 157.456 62.5684C157.456 63.6484 157.696 64.4824 158.176 65.0704C158.668 65.6464 159.328 65.9344 160.156 65.9344ZM166.902 66.9424V59.3284H165.174V58.1944H166.902V57.8884C166.902 56.7244 167.19 55.8424 167.766 55.2424C168.354 54.6424 169.254 54.3064 170.466 54.2344L171.168 54.1984L171.294 55.3144L170.466 55.3684C169.722 55.4284 169.182 55.6504 168.846 56.0344C168.522 56.4184 168.36 56.9764 168.36 57.7084V58.1944H170.88V59.3284H168.36V66.9424H166.902ZM177.088 66.9424V58.1944H178.51V59.6704C178.774 59.1424 179.14 58.7404 179.608 58.4644C180.076 58.1764 180.622 58.0324 181.246 58.0324C182.614 58.0324 183.49 58.6264 183.874 59.8144C184.138 59.2624 184.528 58.8304 185.044 58.5184C185.56 58.1944 186.154 58.0324 186.826 58.0324C188.77 58.0324 189.742 59.1844 189.742 61.4884V66.9424H188.284V61.5604C188.284 60.7564 188.14 60.1684 187.852 59.7964C187.576 59.4124 187.114 59.2204 186.466 59.2204C185.758 59.2204 185.194 59.4724 184.774 59.9764C184.354 60.4804 184.144 61.1524 184.144 61.9924V66.9424H182.686V61.5604C182.686 60.7564 182.542 60.1684 182.254 59.7964C181.978 59.4124 181.516 59.2204 180.868 59.2204C180.148 59.2204 179.578 59.4724 179.158 59.9764C178.75 60.4804 178.546 61.1524 178.546 61.9924V66.9424H177.088ZM195.222 67.1044C194.622 67.1044 194.082 66.9904 193.602 66.7624C193.134 66.5224 192.762 66.1984 192.486 65.7904C192.21 65.3824 192.072 64.9264 192.072 64.4224C192.072 63.7864 192.234 63.2824 192.558 62.9104C192.894 62.5384 193.44 62.2744 194.196 62.1184C194.964 61.9504 196.008 61.8664 197.328 61.8664H197.904V61.3084C197.904 60.5644 197.748 60.0304 197.436 59.7064C197.136 59.3704 196.65 59.2024 195.978 59.2024C195.45 59.2024 194.94 59.2804 194.448 59.4364C193.956 59.5804 193.452 59.8204 192.936 60.1564L192.432 59.0944C192.888 58.7704 193.44 58.5124 194.088 58.3204C194.748 58.1284 195.378 58.0324 195.978 58.0324C197.106 58.0324 197.94 58.3084 198.48 58.8604C199.032 59.4124 199.308 60.2704 199.308 61.4344V66.9424H197.94V65.4304C197.712 65.9464 197.358 66.3544 196.878 66.6544C196.41 66.9544 195.858 67.1044 195.222 67.1044ZM195.456 66.0064C196.176 66.0064 196.764 65.7604 197.22 65.2684C197.676 64.7644 197.904 64.1284 197.904 63.3604V62.8204H197.346C196.374 62.8204 195.606 62.8684 195.042 62.9644C194.49 63.0484 194.1 63.2044 193.872 63.4324C193.656 63.6484 193.548 63.9484 193.548 64.3324C193.548 64.8244 193.716 65.2264 194.052 65.5384C194.4 65.8504 194.868 66.0064 195.456 66.0064ZM205.523 67.1044C204.491 67.1044 203.717 66.8344 203.201 66.2944C202.685 65.7424 202.427 64.9504 202.427 63.9184V59.3284H200.717V58.1944H202.427V55.5124H203.885V58.1944H206.657V59.3284H203.885V63.7744C203.885 64.4584 204.029 64.9804 204.317 65.3404C204.605 65.6884 205.073 65.8624 205.721 65.8624C205.913 65.8624 206.105 65.8384 206.297 65.7904C206.489 65.7424 206.663 65.6944 206.819 65.6464L207.071 66.7624C206.915 66.8464 206.687 66.9244 206.387 66.9964C206.087 67.0684 205.799 67.1044 205.523 67.1044ZM212.16 67.1044C210.78 67.1044 209.688 66.7024 208.884 65.8984C208.08 65.0824 207.678 63.9784 207.678 62.5864C207.678 61.6864 207.858 60.8944 208.218 60.2104C208.578 59.5144 209.07 58.9804 209.694 58.6084C210.33 58.2244 211.062 58.0324 211.89 58.0324C213.078 58.0324 214.008 58.4164 214.68 59.1844C215.352 59.9404 215.688 60.9844 215.688 62.3164V62.8744H209.1C209.148 63.8704 209.436 64.6324 209.964 65.1604C210.492 65.6764 211.224 65.9344 212.16 65.9344C212.688 65.9344 213.192 65.8564 213.672 65.7004C214.152 65.5324 214.608 65.2624 215.04 64.8904L215.544 65.9164C215.148 66.2884 214.644 66.5824 214.032 66.7984C213.42 67.0024 212.796 67.1044 212.16 67.1044ZM211.926 59.1124C211.098 59.1124 210.444 59.3704 209.964 59.8864C209.484 60.4024 209.202 61.0804 209.118 61.9204H214.428C214.392 61.0324 214.158 60.3424 213.726 59.8504C213.306 59.3584 212.706 59.1124 211.926 59.1124ZM217.798 66.9424V58.1944H219.22V59.7604C219.688 58.7044 220.648 58.1224 222.1 58.0144L222.622 57.9604L222.73 59.2204L221.812 59.3284C220.984 59.4004 220.354 59.6644 219.922 60.1204C219.49 60.5644 219.274 61.1764 219.274 61.9564V66.9424H217.798ZM224.069 56.0164V54.3784H225.869V56.0164H224.069ZM224.249 66.9424V58.1944H225.707V66.9424H224.249ZM231.186 67.1044C230.586 67.1044 230.046 66.9904 229.566 66.7624C229.098 66.5224 228.726 66.1984 228.45 65.7904C228.174 65.3824 228.036 64.9264 228.036 64.4224C228.036 63.7864 228.198 63.2824 228.522 62.9104C228.858 62.5384 229.404 62.2744 230.16 62.1184C230.928 61.9504 231.972 61.8664 233.292 61.8664H233.868V61.3084C233.868 60.5644 233.712 60.0304 233.4 59.7064C233.1 59.3704 232.614 59.2024 231.942 59.2024C231.414 59.2024 230.904 59.2804 230.412 59.4364C229.92 59.5804 229.416 59.8204 228.9 60.1564L228.396 59.0944C228.852 58.7704 229.404 58.5124 230.052 58.3204C230.712 58.1284 231.342 58.0324 231.942 58.0324C233.07 58.0324 233.904 58.3084 234.444 58.8604C234.996 59.4124 235.272 60.2704 235.272 61.4344V66.9424H233.904V65.4304C233.676 65.9464 233.322 66.3544 232.842 66.6544C232.374 66.9544 231.822 67.1044 231.186 67.1044ZM231.42 66.0064C232.14 66.0064 232.728 65.7604 233.184 65.2684C233.64 64.7644 233.868 64.1284 233.868 63.3604V62.8204H233.31C232.338 62.8204 231.57 62.8684 231.006 62.9644C230.454 63.0484 230.064 63.2044 229.836 63.4324C229.62 63.6484 229.512 63.9484 229.512 64.3324C229.512 64.8244 229.68 65.2264 230.016 65.5384C230.364 65.8504 230.832 66.0064 231.42 66.0064ZM240.659 67.1044C239.771 67.1044 239.099 66.8464 238.643 66.3304C238.199 65.8024 237.977 65.0404 237.977 64.0444V54.2524H239.435V63.9364C239.435 65.2204 239.945 65.8624 240.965 65.8624C241.265 65.8624 241.535 65.8264 241.775 65.7544L241.739 66.9784C241.367 67.0624 241.007 67.1044 240.659 67.1044ZM246.168 67.1044C245.484 67.1044 244.836 67.0084 244.224 66.8164C243.612 66.6244 243.108 66.3544 242.712 66.0064L243.18 64.9804C243.612 65.3284 244.086 65.5864 244.602 65.7544C245.13 65.9104 245.664 65.9884 246.204 65.9884C246.888 65.9884 247.404 65.8624 247.752 65.6104C248.1 65.3584 248.274 65.0164 248.274 64.5844C248.274 64.2484 248.16 63.9844 247.932 63.7924C247.704 63.5884 247.344 63.4324 246.852 63.3244L245.214 62.9644C243.726 62.6404 242.982 61.8724 242.982 60.6604C242.982 59.8684 243.294 59.2324 243.918 58.7524C244.554 58.2724 245.382 58.0324 246.402 58.0324C247.002 58.0324 247.572 58.1284 248.112 58.3204C248.664 58.5004 249.12 58.7704 249.48 59.1304L248.994 60.1564C248.646 59.8324 248.238 59.5864 247.77 59.4184C247.314 59.2384 246.858 59.1484 246.402 59.1484C245.73 59.1484 245.22 59.2804 244.872 59.5444C244.524 59.8084 244.35 60.1564 244.35 60.5884C244.35 61.2604 244.794 61.6924 245.682 61.8844L247.32 62.2264C248.088 62.3944 248.67 62.6644 249.066 63.0364C249.462 63.3964 249.66 63.8884 249.66 64.5124C249.66 65.3164 249.342 65.9524 248.706 66.4204C248.07 66.8764 247.224 67.1044 246.168 67.1044Z" fill="#E3B873"/>
</g>
<g filter="url(#filter1_d_1_11112)">
<circle cx="56.5" cy="46.4424" r="36" fill="#E3B873"/>
</g>
<path d="M56.8396 53.7205C56.4614 53.7205 56.1526 54.0197 56.1526 54.3915V55.7162C56.1526 56.088 56.4614 56.3872 56.8396 56.3872C57.2178 56.3872 57.5265 56.088 57.5265 55.7162V54.3915C57.5265 54.0197 57.2178 53.7205 56.8396 53.7205Z" fill="white" stroke="white" stroke-width="0.1"/>
<path d="M73.5581 44.4429L73.5581 44.4429C73.1069 42.285 72.0951 40.251 70.6321 38.5603C69.2237 36.9327 67.4214 35.6514 65.4118 34.8438C65.0828 33.5078 64.3927 32.1302 63.0386 31.0928C61.7205 30.083 60.3931 29.8884 60.3338 29.88L60.3338 29.88C60.1374 29.8527 59.9377 29.9097 59.7872 30.037C59.6366 30.1643 59.5498 30.3493 59.5498 30.5443V33.8479H57.3254C56.736 31.9338 54.9142 30.5358 52.7634 30.5358C50.5652 30.5358 48.7096 31.9957 48.1632 33.9748C45.0152 34.4006 42.1197 35.8913 39.9692 38.2048L40.0059 38.2388L39.9692 38.2048C37.7 40.6463 36.45 43.8071 36.45 47.1049C36.45 54.4946 40.3839 60.5048 41.5891 62.1703C41.9705 62.6974 42.5945 63.0116 43.2582 63.0116H45.9692C47.0961 63.0116 48.015 62.1175 48.015 61.0158V60.2141C48.6849 60.3118 49.3649 60.3619 50.0457 60.3619H56.1528V61.0158C56.1528 62.1175 57.0717 63.0116 58.1986 63.0116H61.1765C62.134 63.0116 62.9756 62.3492 63.1767 61.4342L63.4969 59.9777C67.673 58.9761 71.0324 56.1196 72.6959 52.413H75.1837C75.9359 52.413 76.55 51.8161 76.55 51.0796V45.7802C76.55 45.4235 76.4075 45.0883 76.1493 44.8366C75.8912 44.585 75.5483 44.4466 75.1838 44.4466H75.1837H75.1837H75.1837H75.1836H75.1836H75.1836H75.1835L73.5592 44.4468C73.5587 44.4455 73.5584 44.4442 73.5581 44.4429ZM75.1762 51.0294H75.1761V51.0709H73.2111C73.5469 50.0273 73.7538 48.9314 73.8138 47.8021C73.8337 47.4308 73.5411 47.1163 73.1633 47.0972C72.7857 47.0785 72.4615 47.3612 72.4418 47.7325C72.1746 52.7551 68.6861 57.0487 63.8218 58.4989L64.6936 54.5326C64.7736 54.169 64.5358 53.8129 64.1656 53.7356C63.7961 53.6581 63.4301 53.8878 63.3503 54.2509L61.8334 61.1524C61.7678 61.451 61.4919 61.6695 61.1765 61.6695H58.1984C57.8268 61.6695 57.5266 61.375 57.5266 61.0157V58.366C57.5266 57.9942 57.2178 57.6949 56.8396 57.6949C56.4614 57.6949 56.1527 57.9942 56.1527 58.366V59.0198H50.0455C49.3637 59.0198 48.6831 58.9638 48.0148 58.855V54.3915C48.0148 54.0197 47.7061 53.7205 47.3279 53.7205C46.9497 53.7205 46.6409 54.0197 46.6409 54.3915V61.0158C46.6409 61.375 46.3407 61.6696 45.9691 61.6696H43.2582C43.0355 61.6696 42.8366 61.5695 42.7111 61.3958L42.7111 61.3958C41.5641 59.8106 37.8239 54.0967 37.8239 47.1049C37.8239 44.1415 38.9469 41.3011 40.9864 39.107L40.9498 39.0729L40.9864 39.107C42.8401 37.1126 45.3092 35.7984 48.0037 35.3562C48.0187 35.7442 48.0834 36.1277 48.195 36.4975H48.0074C47.6292 36.4975 47.3205 36.7967 47.3205 37.1685C47.3205 37.5403 47.6292 37.8396 48.0074 37.8396H57.5191C57.8974 37.8396 58.2061 37.5403 58.2061 37.1685C58.2061 36.7967 57.8974 36.4975 57.5191 36.4975H57.3315C57.4592 36.075 57.5258 35.6345 57.5266 35.1899H59.5498V36.5061C59.5498 36.8779 59.8585 37.1771 60.2367 37.1771C60.6149 37.1771 60.9237 36.8779 60.9237 36.5061V31.4321C61.5183 31.6613 62.343 32.1097 63.0288 32.9652C63.7404 33.8527 64.3056 35.1821 64.3056 37.1686C64.3056 37.5404 64.6144 37.8397 64.9926 37.8397C65.3708 37.8397 65.6795 37.5404 65.6795 37.1686C65.6795 36.9307 65.6716 36.6809 65.6536 36.423C67.1527 37.1479 68.4978 38.173 69.5829 39.4269C70.8977 40.9463 71.8068 42.7737 72.212 44.7115C72.3426 45.3364 72.9049 45.789 73.5487 45.7889L75.1762 45.7888V51.0294ZM52.7633 31.8779C54.6334 31.8779 56.1527 33.3611 56.1527 35.1815C56.1527 35.6363 56.0552 36.0846 55.871 36.4977H49.6555C49.4714 36.0844 49.3737 35.6363 49.3737 35.1815C49.3737 33.361 50.8931 31.8779 52.7633 31.8779Z" fill="white" stroke="white" stroke-width="0.1"/>
<path d="M64.4116 44.883L64.4116 44.883C64.815 43.8282 65.8808 43.1219 67.0621 43.1219C68.2433 43.1219 69.3093 43.8283 69.7125 44.883C69.7125 44.883 69.7125 44.883 69.7125 44.883L69.6658 44.9008C69.7887 45.2221 69.6211 45.5798 69.2915 45.6996L64.4116 44.883ZM64.4116 44.883C64.2784 45.2313 64.4605 45.6176 64.8155 45.7466M64.4116 44.883L64.8155 45.7466M64.8155 45.7466C65.17 45.8756 65.5657 45.7002 65.6986 45.3526L64.8155 45.7466ZM69.0691 45.7889C69.1488 45.7889 69.2297 45.7753 69.3086 45.7466L65.6986 45.3526C65.9011 44.823 66.4479 44.4639 67.062 44.4639C67.6761 44.4639 68.223 44.823 68.4255 45.3526C68.5289 45.623 68.7913 45.7889 69.0691 45.7889Z" fill="white" stroke="white" stroke-width="0.1"/>
<path d="M55.7116 47.5179C55.0601 47.0761 54.2201 46.8055 53.4502 46.5931V43.5142C54.0451 43.5914 54.5484 43.7637 54.9047 43.9764C55.2758 44.1981 55.4733 44.4544 55.4733 44.6828C55.4733 45.0547 55.7821 45.3539 56.1603 45.3539C56.5385 45.3539 56.8472 45.0547 56.8472 44.6828C56.8472 44.0273 56.4732 43.4411 55.8589 42.9979C55.254 42.5616 54.4127 42.2605 53.4502 42.1627V42.1367C53.4502 41.7649 53.1414 41.4656 52.7632 41.4656C52.385 41.4656 52.0763 41.7649 52.0763 42.1367V42.1627C51.1138 42.2605 50.2724 42.5616 49.6676 42.9979C49.0533 43.4411 48.6792 44.0273 48.6792 44.6828C48.6792 45.6104 49.1508 46.2413 49.8149 46.6917C50.4663 47.1335 51.3064 47.4042 52.0763 47.6165V50.6954C51.4814 50.6183 50.9781 50.446 50.6218 50.2332C50.2506 50.0115 50.0532 49.7552 50.0532 49.5268C50.0532 49.155 49.7444 48.8557 49.3662 48.8557C48.988 48.8557 48.6792 49.155 48.6792 49.5268C48.6792 50.1824 49.0533 50.7685 49.6676 51.2117C50.2724 51.6481 51.1138 51.9491 52.0763 52.0469V52.073C52.0763 52.4448 52.385 52.744 52.7632 52.744C53.1414 52.744 53.4502 52.4448 53.4502 52.073V52.0469C54.4127 51.9491 55.254 51.6481 55.8589 51.2117C56.4732 50.7685 56.8472 50.1824 56.8472 49.5268C56.8472 48.5992 56.3757 47.9683 55.7116 47.5179ZM52.0763 43.5142V46.2104C51.3286 45.9781 50.8248 45.7569 50.5067 45.5155C50.1827 45.2698 50.0532 45.0049 50.0532 44.6828C50.0532 44.4544 50.2506 44.1981 50.6218 43.9764C50.9781 43.7637 51.4814 43.5914 52.0763 43.5142ZM54.9047 50.2333C54.5484 50.446 54.045 50.6183 53.4502 50.6955V47.9993C54.1979 48.2316 54.7016 48.4528 55.0198 48.6942C55.3437 48.9399 55.4733 49.2048 55.4733 49.5268C55.4733 49.7553 55.2758 50.0116 54.9047 50.2333Z" fill="white" stroke="white" stroke-width="0.1"/>
<defs>
<filter id="filter0_d_1_11112" x="108.328" y="20.8022" width="231.653" height="59.3022" filterUnits="userSpaceOnUse" color-interpolation-filters="sRGB">
<feFlood flood-opacity="0" result="BackgroundImageFix"/>
<feColorMatrix in="SourceAlpha" type="matrix" values="0 0 0 0 0 0 0 0 0 0 0 0 0 0 0 0 0 0 127 0" result="hardAlpha"/>
<feOffset dy="3"/>
<feGaussianBlur stdDeviation="5"/>
<feColorMatrix type="matrix" values="0 0 0 0 0.890196 0 0 0 0 0.721569 0 0 0 0 0.45098 0 0 0 0.15 0"/>
<feBlend mode="normal" in2="BackgroundImageFix" result="effect1_dropShadow_1_11112"/>
<feBlend mode="normal" in="SourceGraphic" in2="effect1_dropShadow_1_11112" result="shape"/>
</filter>
<filter id="filter1_d_1_11112" x="0.5" y="0.442383" width="112" height="112" filterUnits="userSpaceOnUse" color-interpolation-filters="sRGB">
<feFlood flood-opacity="0" result="BackgroundImageFix"/>
<feColorMatrix in="SourceAlpha" type="matrix" values="0 0 0 0 0 0 0 0 0 0 0 0 0 0 0 0 0 0 127 0" result="hardAlpha"/>
<feOffset dy="10"/>
<feGaussianBlur stdDeviation="10"/>
<feColorMatrix type="matrix" values="0 0 0 0 0.929412 0 0 0 0 0.752941 0 0 0 0 0.470588 0 0 0 0.2 0"/>
<feBlend mode="normal" in2="BackgroundImageFix" result="effect1_dropShadow_1_11112"/>
<feBlend mode="normal" in="SourceGraphic" in2="effect1_dropShadow_1_11112" result="shape"/>
</filter>
</defs>
</svg>
